<svg xmlns="http://www.w3.org/2000/svg" viewBox="0 0 900 650"><defs><linearGradient id="bg" x1="0" y1="0" x2="1" y2="1"><stop stop-color="#fff7ea"/><stop offset="1" stop-color="#ead6be"/></linearGradient><filter id="s" x="-20%" y="-20%" width="140%" height="140%"><feDropShadow dx="0" dy="18" stdDeviation="18" flood-color="#6b4324" flood-opacity=".16"/></filter></defs><rect width="900" height="650" rx="52" fill="url(#bg)"/><circle cx="92" cy="80" r="120" fill="#ffe7bc" opacity=".45"/><path d="M156 454c110-74 214-96 330-58 82 27 151 22 236-22" fill="none" stroke="#c89161" stroke-width="5" opacity=".28"/><g filter="url(#s)"><path d="M214 102h472c35 0 59 30 52 64l-71 346c-6 29-31 50-61 50H136c-35 0-59-31-51-65l71-346c6-29 31-49 58-49z" fill="#fffaf2"/><path d="M226 168h380" stroke="#c89161" stroke-width="8" opacity=".34" stroke-linecap="round"/><path d="M205 234h446M189 295h382M174 356h418" stroke="#8b6b55" stroke-width="5" opacity=".18" stroke-linecap="round"/><path d="M508 458c34-46 80-78 139-99" fill="none" stroke="#9f5b34" stroke-width="6" opacity=".38" stroke-linecap="round"/></g><g opacity=".75"><path d="M614 118c-20 42-27 82-23 118 3 27 21 46 46 51 36 8 76-14 90-55 13-36 3-79-26-116-22 44-48 64-87 2z" fill="#e2b184" opacity=".45"/><path d="M670 166c-36 56-80 103-132 142" stroke="#9f5b34" stroke-width="3" opacity=".32" fill="none"/></g><path d="M602 480l118 70" stroke="#7d4f30" stroke-width="14" stroke-linecap="round" opacity=".42"/><path d="M712 546l44 26" stroke="#2b211b" stroke-width="14" stroke-linecap="round" opacity=".5"/></svg>