<svg xmlns="http://www.w3.org/2000/svg" viewBox="0 0 900 650"><defs><linearGradient id="bg" x1="0" y1="0" x2="1" y2="1"><stop stop-color="#fff7eb"/><stop offset="1" stop-color="#ecd9c0"/></linearGradient><filter id="s" x="-20%" y="-20%" width="140%" height="140%"><feDropShadow dx="0" dy="20" stdDeviation="20" flood-color="#6b4324" flood-opacity=".16"/></filter></defs><rect width="900" height="650" rx="52" fill="url(#bg)"/><circle cx="760" cy="96" r="160" fill="#f5c98f" opacity=".24"/><g filter="url(#s)"><rect x="130" y="150" width="330" height="390" rx="30" fill="#fffaf2" transform="rotate(-7 295 345)"/><rect x="420" y="110" width="320" height="410" rx="30" fill="#f6e4cf" transform="rotate(5 580 315)"/><rect x="266" y="184" width="360" height="380" rx="34" fill="#fffaf2"/></g><g opacity=".82"><rect x="310" y="230" width="118" height="134" rx="20" fill="#d3b28e"/><rect x="448" y="230" width="118" height="134" rx="20" fill="#c89161" opacity=".55"/><rect x="310" y="388" width="256" height="16" rx="8" fill="#8b6b55" opacity=".2"/><rect x="310" y="428" width="210" height="14" rx="7" fill="#8b6b55" opacity=".16"/><rect x="310" y="468" width="248" height="14" rx="7" fill="#8b6b55" opacity=".14"/></g><path d="M195 456c110-40 212-38 307 8 65 31 126 33 203-7" fill="none" stroke="#b9652c" stroke-width="7" opacity=".25" stroke-linecap="round"/><g opacity=".85"><path d="M652 458c28-54 68-88 120-103-5 69-39 111-102 124" fill="#c89161" opacity=".38"/><path d="M700 394c-44 43-85 78-125 105" stroke="#7c3f21" stroke-width="4" opacity=".28" fill="none" stroke-linecap="round"/></g><rect x="150" y="104" width="172" height="96" rx="20" fill="#d1a071" opacity=".26"/><rect x="174" y="130" width="124" height="9" rx="5" fill="#7c3f21" opacity=".22"/><rect x="174" y="158" width="86" height="8" rx="4" fill="#7c3f21" opacity=".18"/></svg>