<svg xmlns="http://www.w3.org/2000/svg" viewBox="0 0 900 650"><defs><linearGradient id="bg" x1="0" y1="0" x2="1" y2="1"><stop stop-color="#fff7eb"/><stop offset="1" stop-color="#ead6be"/></linearGradient><filter id="s" x="-20%" y="-20%" width="140%" height="140%"><feDropShadow dx="0" dy="18" stdDeviation="18" flood-color="#6b4324" flood-opacity=".16"/></filter><linearGradient id="card" x1="0" y1="0" x2="0" y2="1"><stop stop-color="#fffaf4"/><stop offset="1" stop-color="#ead9c4"/></linearGradient></defs><rect width="900" height="650" rx="52" fill="url(#bg)"/><circle cx="96" cy="84" r="144" fill="#ffe2af" opacity=".35"/><path d="M126 468c116-82 228-104 336-66 96 34 176 27 292-42" fill="none" stroke="#b9652c" stroke-width="6" opacity=".20" stroke-linecap="round"/><path d="M442 192v260M255 292h374M255 292v92M629 292v92" fill="none" stroke="#c08a54" stroke-width="6" opacity=".55" stroke-linecap="round"/><g filter="url(#s)"><g transform="translate(350 78)"><rect width="184" height="204" rx="34" fill="url(#card)"/><circle cx="92" cy="72" r="42" fill="#b9865b" opacity=".55"/><path d="M48 154c15-45 73-45 88 0" fill="#8b6b55" opacity=".28"/><rect x="42" y="164" width="100" height="10" rx="5" fill="#6d5547" opacity=".22"/></g><g transform="translate(162 346)"><rect width="184" height="204" rx="34" fill="url(#card)"/><circle cx="92" cy="72" r="42" fill="#9f5b34" opacity=".42"/><path d="M48 154c15-45 73-45 88 0" fill="#8b6b55" opacity=".25"/><rect x="42" y="164" width="100" height="10" rx="5" fill="#6d5547" opacity=".20"/></g><g transform="translate(536 346)"><rect width="184" height="204" rx="34" fill="url(#card)"/><circle cx="92" cy="72" r="42" fill="#c89161" opacity=".58"/><path d="M48 154c15-45 73-45 88 0" fill="#8b6b55" opacity=".25"/><rect x="42" y="164" width="100" height="10" rx="5" fill="#6d5547" opacity=".20"/></g></g><path d="M214 124c42-16 82-11 120 18M582 114c62 4 106 32 132 85M720 446c34-16 66-18 96-7" fill="none" stroke="#9f5b34" stroke-width="4" opacity=".22" stroke-linecap="round"/><path d="M650 154c-18 32-24 64-16 94 39-17 61-48 66-93-18 18-33 18-50-1z" fill="#c89161" opacity=".28"/></svg>