<svg xmlns="http://www.w3.org/2000/svg" viewBox="0 0 900 650"><defs><linearGradient id="bg" x1="0" y1="0" x2="1" y2="1"><stop stop-color="#fff8ec"/><stop offset="1" stop-color="#ead8c0"/></linearGradient><filter id="s" x="-20%" y="-20%" width="140%" height="140%"><feDropShadow dx="0" dy="18" stdDeviation="18" flood-color="#6b4324" flood-opacity=".14"/></filter></defs><rect width="900" height="650" rx="52" fill="url(#bg)"/><path d="M0 498c126-70 238-92 368-55 155 44 271 8 532-96v303H0z" fill="#e0c19c" opacity=".28"/><path d="M96 438c86-92 160-133 236-122 103 15 120 122 228 121 93-1 137-87 246-154" fill="none" stroke="#9d5b31" stroke-width="10" stroke-linecap="round" stroke-dasharray="2 26" opacity=".52"/><g filter="url(#s)"><g transform="translate(138 240)"><path d="M0 120h178V35L89 0 0 35z" fill="#fffaf2"/><path d="M42 120V74h38v46M112 120V74h38v46" fill="#dcb58c" opacity=".75"/><path d="M-11 40L89-2 189 40" fill="none" stroke="#9a623c" stroke-width="10" stroke-linecap="round" opacity=".5"/></g><g transform="translate(572 184)"><rect x="0" y="74" width="172" height="102" rx="12" fill="#fffaf2"/><path d="M38 74V24h96v50" fill="#dcb58c" opacity=".8"/><path d="M46 24h80l18 50H28z" fill="#9a623c" opacity=".36"/><rect x="46" y="104" width="24" height="72" rx="5" fill="#c89161" opacity=".55"/><rect x="100" y="104" width="38" height="34" rx="4" fill="#c89161" opacity=".45"/></g></g><circle cx="170" cy="430" r="18" fill="#b9652c" opacity=".72"/><circle cx="438" cy="328" r="22" fill="#b9652c" opacity=".62"/><circle cx="706" cy="268" r="18" fill="#b9652c" opacity=".72"/><path d="M382 148c36-45 75-60 118-42 41 17 56 64 41 104-15 39-52 75-114 111-43-67-64-128-45-173z" fill="#fffaf2" opacity=".82" filter="url(#s)"/><circle cx="458" cy="173" r="33" fill="#d1a071" opacity=".6"/><path d="M418 250c28-31 54-47 81-48" stroke="#9a623c" stroke-width="5" opacity=".32" fill="none" stroke-linecap="round"/></svg>